<?xml version="1.0" encoding="utf-8"?>
<!-- Generator: Adobe Illustrator 24.1.3, SVG Export Plug-In . SVG Version: 6.00 Build 0)  -->
<svg version="1.1" id="Calque_1" xmlns="http://www.w3.org/2000/svg" xmlns:xlink="http://www.w3.org/1999/xlink" x="0px" y="0px"
	 viewBox="0 0 1000 1000" style="enable-background:new 0 0 1000 1000;" xml:space="preserve">
<style type="text/css">
	.st0{fill:#78FD01;}
</style>
<g>
	<path class="st0" d="M573.2,379.7c11.2-11.7,18.2-27.7,18.2-45.2c0-35.4-28.1-64.2-62.7-64.2c-21.9,0-41.1,11.5-52.2,28.9
		c-3,3.1-252.3,317.6-254.6,321.2c-11.2,11.7-18.2,27.7-18.2,45.2c0,35.4,28.1,64.2,62.7,64.2c21.9,0,41.1-11.5,52.2-28.9
		C321.7,697.7,571,383.2,573.2,379.7z"/>
	<path class="st0" d="M717.6,528.8c11.4-11.7,18.4-27.7,18.4-45.4c0-35.4-28.1-64.2-62.7-64.2c-21.9,0-41.1,11.5-52.4,28.9
		c-3,3.1-133.9,168.3-136.3,171.8c-11.4,11.7-18.4,27.7-18.4,45.4c0,35.4,28.1,64.2,62.7,64.2c21.9,0,41.1-11.5,52.4-28.9
		C584.3,697.7,715.2,532.6,717.6,528.8z"/>
	<g>
		<ellipse class="st0" cx="791.5" cy="334.4" rx="62.7" ry="64.2"/>
	</g>
	<g>
		<ellipse class="st0" cx="266.4" cy="334.4" rx="62.7" ry="64.2"/>
	</g>
</g>
</svg>
